<svg xmlns="http://www.w3.org/2000/svg" width="44" height="44" fill="none"><path fill="#C7E1FF" fill-rule="evenodd" d="M22 44c12.15 0 22-9.85 22-22S34.15 0 22 0 0 9.85 0 22s9.85 22 22 22Z" clip-rule="evenodd"/><mask id="a" width="46" height="46" x="-1" y="-1" maskUnits="userSpaceOnUse" style="mask-type:alpha"><path fill="#fff" fill-rule="evenodd" stroke="#fff" d="M22 44c12.15 0 22-9.85 22-22S34.15 0 22 0 0 9.85 0 22s9.85 22 22 22Z" clip-rule="evenodd"/></mask><g mask="url(#a)"><path fill="#fff" d="m17.151 33.801-5.805 3.122c-.341.183-3.034 1.277-3.319 1.522 5.387 4.057 10.142 4.96 14.916 4.96 4.738 0 9.952-2.58 13.327-5.355-.311-.26-1.522-.901-1.896-1.085L28.157 33.9a2.334 2.334 0 0 1-1.31-2.09v-2.405a9.24 9.24 0 0 0 .588-.746 14.023 14.023 0 0 0 1.932-3.84c.798-.242 1.385-.968 1.385-1.83V20.42c0-.564-.255-1.069-.65-1.422v-3.71s.773-5.775-7.16-5.775c-7.931 0-7.158 5.774-7.158 5.774v3.71c-.396.354-.65.859-.65 1.423v2.567c0 .676.36 1.271.9 1.615.65 2.792 2.354 4.802 2.354 4.802v2.345c-.001.855-.475 1.642-1.237 2.051Z"/></g></svg>