<svg xmlns="http://www.w3.org/2000/svg" width="32" height="32" fill="none"><path fill="#BDC4CD" fill-rule="evenodd" d="M21.964 12.94c.006.133.01.265.01.4 0 4.065-3.096 8.755-8.757 8.755A8.714 8.714 0 0 1 8.5 20.713c.24.028.486.042.734.042a6.172 6.172 0 0 0 3.822-1.317 3.08 3.08 0 0 1-2.875-2.137 3.108 3.108 0 0 0 1.39-.053 3.078 3.078 0 0 1-2.468-3.017v-.04c.414.231.89.37 1.394.386a3.077 3.077 0 0 1-.953-4.11 8.738 8.738 0 0 0 6.343 3.216 3.078 3.078 0 0 1 5.243-2.807 6.158 6.158 0 0 0 1.956-.746 3.092 3.092 0 0 1-1.353 1.703 6.175 6.175 0 0 0 1.767-.485 6.263 6.263 0 0 1-1.536 1.593ZM16 1C7.715 1 1 7.715 1 16c0 8.284 6.715 15 15 15s15-6.716 15-15c0-8.285-6.715-15-15-15Z" clip-rule="evenodd"/></svg>