<svg xmlns="http://www.w3.org/2000/svg" width="44" height="44" fill="none"><g filter="url(#a)"><rect width="40" height="40" x="2" y="1" fill="#fff" rx="6"/><rect width="39" height="39" x="2.5" y="1.5" stroke="#DEE2E7" rx="5.5"/><path fill="#0D6EFD" d="M26.5 11.825c-1.74 0-3.41.81-4.5 2.09-1.09-1.28-2.76-2.09-4.5-2.09-3.08 0-5.5 2.42-5.5 5.5 0 3.78 3.4 6.86 8.55 11.54l1.45 1.31 1.45-1.32c5.15-4.67 8.55-7.75 8.55-11.53 0-3.08-2.42-5.5-5.5-5.5Zm-4.4 15.55-.1.1-.1-.1c-4.76-4.31-7.9-7.16-7.9-10.05 0-2 1.5-3.5 3.5-3.5 1.54 0 3.04.99 3.57 2.36h1.87c.52-1.37 2.02-2.36 3.56-2.36 2 0 3.5 1.5 3.5 3.5 0 2.89-3.14 5.74-7.9 10.05Z"/></g><defs><filter id="a" width="44" height="44" x="0" y="0" color-interpolation-filters="sRGB" filterUnits="userSpaceOnUse"><feFlood flood-opacity="0" result="BackgroundImageFix"/><feColorMatrix in="SourceAlpha" result="hardAlpha" values="0 0 0 0 0 0 0 0 0 0 0 0 0 0 0 0 0 0 127 0"/><feOffset dy="1"/><feGaussianBlur stdDeviation="1"/><feColorMatrix values="0 0 0 0 0.220833 0 0 0 0 0.220833 0 0 0 0 0.220833 0 0 0 0.08 0"/><feBlend in2="BackgroundImageFix" result="effect1_dropShadow_5477_593"/><feBlend in="SourceGraphic" in2="effect1_dropShadow_5477_593" result="shape"/></filter></defs></svg>